<?xml version="1.0" encoding="utf-8"?>
<COLLADA xmlns="http://www.collada.org/2005/11/COLLADASchema" version="1.4.1">
  <asset>
    <unit name="meter" meter="1"/>
    <up_axis>Z_UP</up_axis>
  </asset>
  <library_effects>
    <effect id="road_effect">
      <profile_COMMON>
        <technique sid="common">
          <lambert>
            <diffuse>
              <color>0.18 0.19 0.19 1</color>
            </diffuse>
          </lambert>
        </technique>
      </profile_COMMON>
    </effect>
  </library_effects>
  <library_materials>
    <material id="road_material" name="road_material">
      <instance_effect url="#road_effect"/>
    </material>
  </library_materials>
  <library_geometries>
    <geometry id="road_surface_geometry" name="road_surface_geometry">
      <mesh>
        <source id="road_surface_positions">
          <float_array id="road_surface_positions_array" count="1092">-22.1601 -36.4495 0.005 -23.4934 -37.9402 0.005 23.6281 -77.403 0.005 22.2948 -78.8937 0.005 23.6281 -77.403 0.005 22.2948 -78.8937 0.005 24.5153 -78.0422 0.005 23.3141 -79.6672 0.005 25.4898 -78.5437 0.005 24.4454 -80.2689 0.005 26.5069 -78.9558 0.005 25.6261 -80.77 0.005 27.5527 -79.2852 0.005 26.8427 -81.1706 0.005 28.6266 -79.51 0.005 28.0917 -81.4634 0.005 29.7156 -79.636 0.005 29.361 -81.6242 0.005 30.8129 -79.6716 0.005 30.6429 -81.6702 0.005 31.9109 -79.6774 0.005 31.926 -81.6811 0.005 33.0088 -79.6589 0.005 33.2085 -81.6527 0.005 34.101 -79.5477 0.005 34.4841 -81.5339 0.005 35.1836 -79.3724 0.005 35.7501 -81.3289 0.005 36.2561 -79.1388 0.005 36.9958 -81.0213 0.005 37.3107 -78.8329 0.005 38.2227 -80.6465 0.005 38.3339 -78.4374 0.005 39.4041 -80.1517 0.005 39.2792 -77.8841 0.005 40.493 -79.4783 0.005 40.1233 -77.1836 0.005 41.4779 -78.6581 0.005 40.8579 -76.3675 0.005 42.3396 -77.7083 0.005 -23.4934 -37.9402 0.005 -24.8267 -39.4309 0.005 22.2948 -78.8937 0.005 20.9615 -80.3844 0.005 22.2948 -78.8937 0.005 20.9615 -80.3844 0.005 23.3141 -79.6672 0.005 22.1235 -81.273 0.005 24.4454 -80.2689 0.005 23.3967 -81.9955 0.005 25.6261 -80.77 0.005 24.7463 -82.5663 0.005 26.8427 -81.1706 0.005 26.1298 -83.0503 0.005 28.0917 -81.4634 0.005 27.557 -83.3809 0.005 29.361 -81.6242 0.005 29.0066 -83.5977 0.005 30.6429 -81.6702 0.005 30.4703 -83.6658 0.005 31.926 -81.6811 0.005 31.9359 -83.6744 0.005 33.2085 -81.6527 0.005 33.4005 -83.633 0.005 34.4841 -81.5339 0.005 34.8585 -83.4835 0.005 35.7501 -81.3289 0.005 36.299 -83.2195 0.005 36.9958 -81.0213 0.005 37.7221 -82.8734 0.005 38.2227 -80.6465 0.005 39.1156 -82.4241 0.005 39.4041 -80.1517 0.005 40.4546 -81.8348 0.005 40.493 -79.4783 0.005 41.6975 -81.0603 0.005 41.4779 -78.6581 0.005 42.8198 -80.1193 0.005 42.3396 -77.7083 0.005 43.8229 -79.0506 0.005 40.8579 -76.3675 0.005 42.3396 -77.7083 0.005 49.5353 -66.5259 0.005 51.0254 -67.8583 0.005 58.2233 -56.6935 0.005 59.7212 -58.017 0.005 42.3396 -77.7083 0.005 43.8229 -79.0506 0.005 51.0254 -67.8583 0.005 52.5152 -69.1905 0.005 59.7212 -58.017 0.005 61.2196 -59.3409 0.005 58.2233 -56.6935 0.005 59.7212 -58.017 0.005 58.6556 -56.1702 0.005 60.2462 -57.3842 0.005 59.0588 -55.6237 0.005 60.7429 -56.7296 0.005 59.3862 -55.0313 0.005 61.1599 -56.0222 0.005 59.6362 -54.4016 0.005 61.4618 -55.2576 0.005 59.8335 -53.7526 0.005 61.7171 -54.4768 0.005 59.9729 -53.088 0.005 61.8956 -53.6743 0.005 60.0231 -52.4111 0.005 62.0102 -52.8617 0.005 60.0067 -51.7329 0.005 62.0273 -52.04 0.005 59.9389 -51.0586 0.005 61.9858 -51.2196 0.005 59.8057 -50.3933 0.005 61.8624 -50.4079 0.005 59.6191 -49.7404 0.005 61.6703 -49.6086 0.005 59.3688 -49.1104 0.005 61.427 -48.824 0.005 59.0825 -48.4951 0.005 61.107 -48.0679 0.005 58.762 -47.8965 0.005 60.7425 -47.3309 0.005 58.3784 -47.3378 0.005 60.3329 -46.6202 0.005 57.969 -46.7963 0.005 59.8543 -45.9519 0.005 57.5265 -46.2812 0.005 59.3397 -45.3107 0.005 57.0742 -45.775 0.005 58.8009 -44.6896 0.005 56.602 -45.287 0.005 58.2422 -44.0863 0.005 56.0983 -44.8322 0.005 57.6495 -43.5166 0.005 55.5849 -44.3878 0.005 57.0273 -42.9791 0.005 55.0671 -43.9484 0.005 56.3953 -42.4531 0.005 59.7212 -58.017 0.005 61.2196 -59.3409 0.005 60.2462 -57.3842 0.005 61.8213 -58.5917 0.005 60.7429 -56.7296 0.005 62.3909 -57.8173 0.005 61.1599 -56.0222 0.005 62.8638 -56.9839 0.005 61.4618 -55.2576 0.005 63.2678 -56.1132 0.005 61.7171 -54.4768 0.005 63.5661 -55.1993 0.005 61.8956 -53.6743 0.005 63.8057 -54.2697 0.005 62.0102 -52.8617 0.005 63.9443 -53.3204 0.005 62.0273 -52.04 0.005 64.0189 -52.362 0.005 61.9858 -51.2196 0.005 63.9884 -51.402 0.005 61.8624 -50.4079 0.005 63.8791 -50.4489 0.005 61.6703 -49.6086 0.005 63.7074 -49.5031 0.005 61.427 -48.824 0.005 63.4391 -48.58 0.005 61.107 -48.0679 0.005 63.1007 -47.682 0.005 60.7425 -47.3309 0.005 62.7076 -46.8054 0.005 60.3329 -46.6202 0.005 62.2411 -45.9648 0.005 59.8543 -45.9519 0.005 61.7318 -45.1518 0.005 59.3397 -45.3107 0.005 61.1586 -44.3801 0.005 58.8009 -44.6896 0.005 60.5333 -43.6499 0.005 58.2422 -44.0863 0.005 59.8921 -42.9341 0.005 57.6495 -43.5166 0.005 59.2241 -42.243 0.005 57.0273 -42.9791 0.005 58.5128 -41.5963 0.005 56.3953 -42.4531 0.005 57.8015 -40.9496 0.005 55.0671 -43.9484 0.005 56.3953 -42.4531 0.005 8.6605 -2.7294 0.005 9.9887 -1.2341 0.005 56.3953 -42.4531 0.005 57.8015 -40.9496 0.005 9.9887 -1.2341 0.005 11.3169 0.2612 0.005 8.6605 -2.7294 0.005 9.9887 -1.2341 0.005 8.2294 -2.3823 0.005 9.429 -0.7803 0.005 7.7714 -2.0706 0.005 8.8408 -0.3641 0.005 7.2979 -1.7844 0.005 8.2225 0.0059 0.005 6.8079 -1.5268 0.005 7.577 0.3259 0.005 6.2973 -1.3121 0.005 6.9138 0.6077 0.005 5.7754 -1.1287 0.005 6.2328 0.8433 0.005 5.2428 -0.9782 0.005 5.5326 1.0127 0.005 4.6945 -0.8994 0.005 4.8189 1.1101 0.005 4.1441 -0.8451 0.005 4.1006 1.1618 0.005 3.5904 -0.8281 0.005 3.3804 1.1759 0.005 3.0382 -0.8582 0.005 2.6629 1.1287 0.005 2.4895 -0.9265 0.005 1.953 1.008 0.005 1.9545 -1.0674 0.005 1.2629 0.8103 0.005 1.4588 -1.3147 0.005 0.614 0.4985 0.005 1.0133 -1.6437 0.005 0.005 0.1175 0.005 0.5872 -1.9964 0.005 -0.5571 -0.333 0.005 0.1907 -2.3823 0.005 -1.0852 -0.8221 0.005 -0.1724 -2.8007 0.005 -1.5678 -1.357 0.005 -0.5451 -3.2104 0.005 -2.0488 -1.8935 0.005 9.9887 -1.2341 0.005 11.3169 0.2612 0.005 9.429 -0.7803 0.005 10.6212 0.8045 0.005 8.8408 -0.3641 0.005 9.8965 1.3096 0.005 8.2225 0.0059 0.005 9.14 1.7631 0.005 7.577 0.3259 0.005 8.349 2.1538 0.005 6.9138 0.6077 0.005 7.5351 2.4968 0.005 6.2328 0.8433 0.005 6.6944 2.7648 0.005 5.5326 1.0127 0.005 5.8354 2.9606 0.005 4.8189 1.1101 0.005 4.9609 3.0846 0.005 4.1006 1.1618 0.005 4.0818 3.1554 0.005 3.3804 1.1759 0.005 3.1995 3.1598 0.005 2.6629 1.1287 0.005 2.3195 3.0836 0.005 1.953 1.008 0.005 1.4581 2.903 0.005 1.2629 0.8103 0.005 0.6055 2.6719 0.005 0.614 0.4985 0.005 -0.2011 2.3195 0.005 0.005 0.1175 0.005 -0.943 1.8447 0.005 -0.5571 -0.333 0.005 -1.6617 1.3313 0.005 -1.0852 -0.8221 0.005 -2.3285 0.7538 0.005 -1.5678 -1.357 0.005 -2.9386 0.1163 0.005 -2.0488 -1.8935 0.005 -3.5286 -0.541 0.005 -0.5451 -3.2104 0.005 -2.0488 -1.8935 0.005 -22.6419 -28.4412 0.005 -24.1456 -27.1243 0.005 -2.0488 -1.8935 0.005 -3.5286 -0.541 0.005 -24.1456 -27.1243 0.005 -25.6501 -25.8067 0.005 -22.6419 -28.4412 0.005 -24.1456 -27.1243 0.005 -22.9533 -28.7825 0.005 -24.5591 -27.5834 0.005 -23.2506 -29.1357 0.005 -24.9484 -28.0629 0.005 -23.5351 -29.4998 0.005 -25.3074 -28.5656 0.005 -23.7869 -29.8854 0.005 -25.6263 -29.0939 0.005 -24.0093 -30.2903 0.005 -25.8948 -29.6492 0.005 -24.1689 -30.7225 0.005 -26.1067 -30.2291 0.005 -24.3071 -31.1629 0.005 -26.2722 -30.8237 0.005 -24.3626 -31.6216 0.005 -26.3654 -31.4346 0.005 -24.4027 -32.0803 0.005 -26.3989 -32.0512 0.005 -24.3528 -32.5397 0.005 -26.3622 -32.6667 0.005 -24.285 -32.9963 0.005 -26.2697 -33.2772 0.005 -24.2009 -33.4506 0.005 -26.1457 -33.8825 0.005 -24.0649 -33.8921 0.005 -25.9753 -34.4759 0.005 -23.8971 -34.3216 0.005 -25.7552 -35.053 0.005 -23.7049 -34.7417 0.005 -25.4981 -35.6148 0.005 -23.4353 -35.1166 0.005 -25.1784 -36.1417 0.005 -23.1426 -35.4735 0.005 -24.807 -36.6349 0.005 -22.8321 -35.8153 0.005 -24.3932 -37.0933 0.005 -22.4984 -36.1348 0.005 -23.9477 -37.5214 0.005 -22.1601 -36.4495 0.005 -23.4934 -37.9402 0.005 -24.1456 -27.1243 0.005 -25.6501 -25.8067 0.005 -24.5591 -27.5834 0.005 -26.1576 -26.389 0.005 -24.9484 -28.0629 0.005 -26.627 -27.003 0.005 -25.3074 -28.5656 0.005 -27.0627 -27.6387 0.005 -25.6263 -29.0939 0.005 -27.4306 -28.3184 0.005 -25.8948 -29.6492 0.005 -27.7845 -29.0041 0.005 -26.1067 -30.2291 0.005 -28.0346 -29.7354 0.005 -26.2722 -30.8237 0.005 -28.1951 -30.4883 0.005 -26.3654 -31.4346 0.005 -28.3077 -31.2529 0.005 -26.3989 -32.0512 0.005 -28.3741 -32.0193 0.005 -26.3622 -32.6667 0.005 -28.3209 -32.7903 0.005 -26.2697 -33.2772 0.005 -28.2474 -33.5586 0.005 -26.1457 -33.8825 0.005 -28.0958 -34.3163 0.005 -25.9753 -34.4759 0.005 -27.8639 -35.0535 0.005 -25.7552 -35.053 0.005 -27.5987 -35.7774 0.005 -25.4981 -35.6148 0.005 -27.2582 -36.4712 0.005 -25.1784 -36.1417 0.005 -26.9029 -37.1561 0.005 -24.807 -36.6349 0.005 -26.4538 -37.785 0.005 -24.3932 -37.0933 0.005 -25.9402 -38.3617 0.005 -23.9477 -37.5214 0.005 -25.4039 -38.917 0.005 -23.4934 -37.9402 0.005 -24.8267 -39.4309 0.005</float_array>
          <technique_common>
            <accessor source="#road_surface_positions_array" count="364" stride="3">
              <param name="X" type="float"/>
              <param name="Y" type="float"/>
              <param name="Z" type="float"/>
            </accessor>
          </technique_common>
        </source>
        <vertices id="road_surface_vertices">
          <input semantic="POSITION" source="#road_surface_positions"/>
        </vertices>
        <triangles material="road_material" count="664">
          <input semantic="VERTEX" source="#road_surface_vertices" offset="0"/>
          <p>0 1 2 1 3 2 2 1 0 2 3 1 4 5 6 5 7 6 6 5 4 6 7 5 6 7 8 7 9 8 8 7 6 8 9 7 8 9 10 9 11 10 10 9 8 10 11 9 10 11 12 11 13 12 12 11 10 12 13 11 12 13 14 13 15 14 14 13 12 14 15 13 14 15 16 15 17 16 16 15 14 16 17 15 16 17 18 17 19 18 18 17 16 18 19 17 18 19 20 19 21 20 20 19 18 20 21 19 20 21 22 21 23 22 22 21 20 22 23 21 22 23 24 23 25 24 24 23 22 24 25 23 24 25 26 25 27 26 26 25 24 26 27 25 26 27 28 27 29 28 28 27 26 28 29 27 28 29 30 29 31 30 30 29 28 30 31 29 30 31 32 31 33 32 32 31 30 32 33 31 32 33 34 33 35 34 34 33 32 34 35 33 34 35 36 35 37 36 36 35 34 36 37 35 36 37 38 37 39 38 38 37 36 38 39 37 40 41 42 41 43 42 42 41 40 42 43 41 44 45 46 45 47 46 46 45 44 46 47 45 46 47 48 47 49 48 48 47 46 48 49 47 48 49 50 49 51 50 50 49 48 50 51 49 50 51 52 51 53 52 52 51 50 52 53 51 52 53 54 53 55 54 54 53 52 54 55 53 54 55 56 55 57 56 56 55 54 56 57 55 56 57 58 57 59 58 58 57 56 58 59 57 58 59 60 59 61 60 60 59 58 60 61 59 60 61 62 61 63 62 62 61 60 62 63 61 62 63 64 63 65 64 64 63 62 64 65 63 64 65 66 65 67 66 66 65 64 66 67 65 66 67 68 67 69 68 68 67 66 68 69 67 68 69 70 69 71 70 70 69 68 70 71 69 70 71 72 71 73 72 72 71 70 72 73 71 72 73 74 73 75 74 74 73 72 74 75 73 74 75 76 75 77 76 76 75 74 76 77 75 76 77 78 77 79 78 78 77 76 78 79 77 80 81 82 81 83 82 82 81 80 82 83 81 82 83 84 83 85 84 84 83 82 84 85 83 86 87 88 87 89 88 88 87 86 88 89 87 88 89 90 89 91 90 90 89 88 90 91 89 92 93 94 93 95 94 94 93 92 94 95 93 94 95 96 95 97 96 96 95 94 96 97 95 96 97 98 97 99 98 98 97 96 98 99 97 98 99 100 99 101 100 100 99 98 100 101 99 100 101 102 101 103 102 102 101 100 102 103 101 102 103 104 103 105 104 104 103 102 104 105 103 104 105 106 105 107 106 106 105 104 106 107 105 106 107 108 107 109 108 108 107 106 108 109 107 108 109 110 109 111 110 110 109 108 110 111 109 110 111 112 111 113 112 112 111 110 112 113 111 112 113 114 113 115 114 114 113 112 114 115 113 114 115 116 115 117 116 116 115 114 116 117 115 116 117 118 117 119 118 118 117 116 118 119 117 118 119 120 119 121 120 120 119 118 120 121 119 120 121 122 121 123 122 122 121 120 122 123 121 122 123 124 123 125 124 124 123 122 124 125 123 124 125 126 125 127 126 126 125 124 126 127 125 126 127 128 127 129 128 128 127 126 128 129 127 128 129 130 129 131 130 130 129 128 130 131 129 130 131 132 131 133 132 132 131 130 132 133 131 132 133 134 133 135 134 134 133 132 134 135 133 134 135 136 135 137 136 136 135 134 136 137 135 138 139 140 139 141 140 140 139 138 140 141 139 140 141 142 141 143 142 142 141 140 142 143 141 142 143 144 143 145 144 144 143 142 144 145 143 144 145 146 145 147 146 146 145 144 146 147 145 146 147 148 147 149 148 148 147 146 148 149 147 148 149 150 149 151 150 150 149 148 150 151 149 150 151 152 151 153 152 152 151 150 152 153 151 152 153 154 153 155 154 154 153 152 154 155 153 154 155 156 155 157 156 156 155 154 156 157 155 156 157 158 157 159 158 158 157 156 158 159 157 158 159 160 159 161 160 160 159 158 160 161 159 160 161 162 161 163 162 162 161 160 162 163 161 162 163 164 163 165 164 164 163 162 164 165 163 164 165 166 165 167 166 166 165 164 166 167 165 166 167 168 167 169 168 168 167 166 168 169 167 168 169 170 169 171 170 170 169 168 170 171 169 170 171 172 171 173 172 172 171 170 172 173 171 172 173 174 173 175 174 174 173 172 174 175 173 174 175 176 175 177 176 176 175 174 176 177 175 176 177 178 177 179 178 178 177 176 178 179 177 178 179 180 179 181 180 180 179 178 180 181 179 180 181 182 181 183 182 182 181 180 182 183 181 184 185 186 185 187 186 186 185 184 186 187 185 188 189 190 189 191 190 190 189 188 190 191 189 192 193 194 193 195 194 194 193 192 194 195 193 194 195 196 195 197 196 196 195 194 196 197 195 196 197 198 197 199 198 198 197 196 198 199 197 198 199 200 199 201 200 200 199 198 200 201 199 200 201 202 201 203 202 202 201 200 202 203 201 202 203 204 203 205 204 204 203 202 204 205 203 204 205 206 205 207 206 206 205 204 206 207 205 206 207 208 207 209 208 208 207 206 208 209 207 208 209 210 209 211 210 210 209 208 210 211 209 210 211 212 211 213 212 212 211 210 212 213 211 212 213 214 213 215 214 214 213 212 214 215 213 214 215 216 215 217 216 216 215 214 216 217 215 216 217 218 217 219 218 218 217 216 218 219 217 218 219 220 219 221 220 220 219 218 220 221 219 220 221 222 221 223 222 222 221 220 222 223 221 222 223 224 223 225 224 224 223 222 224 225 223 224 225 226 225 227 226 226 225 224 226 227 225 226 227 228 227 229 228 228 227 226 228 229 227 228 229 230 229 231 230 230 229 228 230 231 229 232 233 234 233 235 234 234 233 232 234 235 233 234 235 236 235 237 236 236 235 234 236 237 235 236 237 238 237 239 238 238 237 236 238 239 237 238 239 240 239 241 240 240 239 238 240 241 239 240 241 242 241 243 242 242 241 240 242 243 241 242 243 244 243 245 244 244 243 242 244 245 243 244 245 246 245 247 246 246 245 244 246 247 245 246 247 248 247 249 248 248 247 246 248 249 247 248 249 250 249 251 250 250 249 248 250 251 249 250 251 252 251 253 252 252 251 250 252 253 251 252 253 254 253 255 254 254 253 252 254 255 253 254 255 256 255 257 256 256 255 254 256 257 255 256 257 258 257 259 258 258 257 256 258 259 257 258 259 260 259 261 260 260 259 258 260 261 259 260 261 262 261 263 262 262 261 260 262 263 261 262 263 264 263 265 264 264 263 262 264 265 263 264 265 266 265 267 266 266 265 264 266 267 265 266 267 268 267 269 268 268 267 266 268 269 267 268 269 270 269 271 270 270 269 268 270 271 269 272 273 274 273 275 274 274 273 272 274 275 273 276 277 278 277 279 278 278 277 276 278 279 277 280 281 282 281 283 282 282 281 280 282 283 281 282 283 284 283 285 284 284 283 282 284 285 283 284 285 286 285 287 286 286 285 284 286 287 285 286 287 288 287 289 288 288 287 286 288 289 287 288 289 290 289 291 290 290 289 288 290 291 289 290 291 292 291 293 292 292 291 290 292 293 291 292 293 294 293 295 294 294 293 292 294 295 293 294 295 296 295 297 296 296 295 294 296 297 295 296 297 298 297 299 298 298 297 296 298 299 297 298 299 300 299 301 300 300 299 298 300 301 299 300 301 302 301 303 302 302 301 300 302 303 301 302 303 304 303 305 304 304 303 302 304 305 303 304 305 306 305 307 306 306 305 304 306 307 305 306 307 308 307 309 308 308 307 306 308 309 307 308 309 310 309 311 310 310 309 308 310 311 309 310 311 312 311 313 312 312 311 310 312 313 311 312 313 314 313 315 314 314 313 312 314 315 313 314 315 316 315 317 316 316 315 314 316 317 315 316 317 318 317 319 318 318 317 316 318 319 317 318 319 320 319 321 320 320 319 318 320 321 319 322 323 324 323 325 324 324 323 322 324 325 323 324 325 326 325 327 326 326 325 324 326 327 325 326 327 328 327 329 328 328 327 326 328 329 327 328 329 330 329 331 330 330 329 328 330 331 329 330 331 332 331 333 332 332 331 330 332 333 331 332 333 334 333 335 334 334 333 332 334 335 333 334 335 336 335 337 336 336 335 334 336 337 335 336 337 338 337 339 338 338 337 336 338 339 337 338 339 340 339 341 340 340 339 338 340 341 339 340 341 342 341 343 342 342 341 340 342 343 341 342 343 344 343 345 344 344 343 342 344 345 343 344 345 346 345 347 346 346 345 344 346 347 345 346 347 348 347 349 348 348 347 346 348 349 347 348 349 350 349 351 350 350 349 348 350 351 349 350 351 352 351 353 352 352 351 350 352 353 351 352 353 354 353 355 354 354 353 352 354 355 353 354 355 356 355 357 356 356 355 354 356 357 355 356 357 358 357 359 358 358 357 356 358 359 357 358 359 360 359 361 360 360 359 358 360 361 359 360 361 362 361 363 362 362 361 360 362 363 361</p>
        </triangles>
      </mesh>
    </geometry>
  </library_geometries>
  <library_visual_scenes>
    <visual_scene id="road_surface_scene" name="road_surface_scene">
      <node id="road_surface_node" name="road_surface_node">
        <instance_geometry url="#road_surface_geometry">
          <bind_material>
            <technique_common>
              <instance_material symbol="road_material" target="#road_material"/>
            </technique_common>
          </bind_material>
        </instance_geometry>
      </node>
    </visual_scene>
  </library_visual_scenes>
  <scene>
    <instance_visual_scene url="#road_surface_scene"/>
  </scene>
</COLLADA>
